<?xml version="1.0" standalone="no"?>
<!DOCTYPE svg PUBLIC "-//W3C//DTD SVG 1.1//EN" "http://www.w3.org/Graphics/SVG/1.1/DTD/svg11.dtd" >
<svg xmlns="http://www.w3.org/2000/svg" xmlns:svg="http://www.w3.org/2000/svg" xmlns:xlink="http://www.w3.org/1999/xlink" viewBox="0 0 1024 1024"><path d="M424.978 815.048Q469.467 705.015 471.371 642.704Q482.325 574.46 516.405 433.489Q474.73 376.675 501.596 283.523Q510.503 235.431 492.305 256.004Q526.049 224.823 540.997 256.477Q570.248 250.777 635.216 239.16L669.534 216.244V211.2Q667.676 176.033 684.478 140.83Q674.744 178.447 685.59 140.187Q664.262 150.283 697.034 140.71Q716.377 128.017 700.965 85.345Q721.608 109.774 699.269 86.56Q740.347 95.712 742.223 82.369Q735.463 97.512 733.079 106.052Q727.681 87.896 754.668 126.069Q746.043 152.759 789.721 188.113L786.047 211.802H806.494Q855.587 212.109 901.393 210.203Q890.657 208.21 886.302 279.881Q897.6 234.446 920.843 254.229Q902.041 290.722 925.588 244.346Q899.214 243.94 900.114 252.089Q899.155 308.866 897.569 276.082Q888.593 290.413 846.159 270.014Q850.706 268.645 804.914 270.924Q814.127 300.355 776.957 290.776Q779.57 303.389 806.027 299.416Q771.406 307.751 783.004 337.362Q800.369 288.24 760.74 311.237Q796.504 322.606 778.97 388.396Q762.503 427.361 811.455 434.888Q821.997 451.043 807.427 519.267Q829.472 539.691 820.579 561.291Q822.086 578.014 836.321 554.863Q839.434 564.404 845.117 556.311Q838.81 528.507 820.31 559.262Q841.903 529.659 821.178 529.422Q851.137 508.674 847.782 515.745Q832.092 495.546 852.99 463.317Q853.254 475.069 861.759 436.219Q896.795 450.185 907.041 462.749Q941.484 456.477 936.171 448.156Q937.681 478.409 932.107 486.995Q918.319 483.259 898.099 487.133Q899.651 511.381 910.311 531.886Q880.579 558.3 856.604 636.016Q863.103 696.097 839.533 701.766Q838.811 704.806 838.673 685.132Q863.084 719.912 891.704 720.803Q903.23 744.522 902.387 761.771Q871.46 819.803 889.927 798.015Q912.953 829.443 865.487 809.896Q904.67 784.636 863.767 833.94Q907.5 804.806 896.214 807.067Q923.067 767.013 944.919 786.538Q937.787 807.464 944.627 811.397Q960.106 790.181 955.938 808.886Q934.913 828.003 964.97 856.244Q935.465 890.508 900.931 911.643Q912.717 916.554 903.089 951.451Q865.193 916.284 891.145 894.596Q826.897 872.889 844.935 809.718Q810.952 815.678 774.927 805.648Q801.73 804.624 771.76 764.224Q793.663 751.823 814.15 797.131Q814.519 791.063 760.065 814.608Q793.786 819.819 797.535 794.554Q766.226 834.446 779.48 832.851Q744.45 826.502 763.01 824.642Q720.807 861.176 738.519 816.79Q743.218 858.613 698.909 865.023Q725.826 842.636 717.562 823.851Q665.333 808.316 690.531 778.154Q697.453 814.045 700.46 776.228Q702.105 738.236 720.732 743.435Q715.099 686.129 756.323 690.222Q766.999 657.113 732.199 675.692Q761.536 679.296 779.41 640.812Q742.409 670.13 730.565 653.792Q750.791 627.374 766.127 574.597Q701.887 493.586 728.176 439.677Q695.356 403.93 680.316 366.984Q724.22 319.641 703.807 321.689Q695.876 283.67 674.402 322.513Q667.14 269.222 603.331 271.616Q571.421 276.45 595.904 289.038Q550.959 300.315 558.998 301.78Q572.921 329.091 551.612 364.907Q539.055 416.491 583.52 449.323Q552.974 449.969 586.085 464.101Q591.911 449.015 600.606 480.633Q585.106 476.827 607.508 487.421Q634.508 493.248 629.82 447Q695.7 439.117 673.795 508.519Q695.482 526.322 707.044 548.675Q680.045 586.205 674.09 622.294Q699.589 699.435 690.619 737.461Q659.906 768.834 632.091 769.799Q646.817 749.231 657.324 767.241Q662.955 752.072 625.166 766.334Q611.451 744.423 568.813 748.575Q547.455 721.642 541.469 685.358Q579.642 723.678 606.697 681.176Q563.603 679.587 596.221 673.338H599.959L641.643 675.367L640.511 599.175V558.518Q608.2 517.366 628.488 519.43Q605.079 524.347 598.74 509.186Q603.159 563.835 630.701 511.476Q598.328 521.647 610.735 531.531Q616.586 528.016 557.908 554.879Q537.733 553.3 588.991 563.264Q566.956 540.439 577.28 544.803Q547.279 545.019 547.153 614.925Q532.309 579.506 538.876 649.264Q566.337 649.84 530.365 667.478Q557.696 782.275 522.997 837.897Q493.918 926.992 482.533 916.544Q486.881 970.444 474.17 951.514Q460.061 918.094 450.229 939.441Q461.531 969.95 454.81 959.423Q416.378 913.117 447.858 915.096Q420.878 876.728 422.954 814.159ZM121.221 652.952Q81.129 636.584 117.378 638.806Q111.105 578.53 106.193 607.393Q167.693 619.942 229.304 605.188Q261.911 591.627 309.508 587.849Q383.297 634.017 428.49 619.905Q389.491 613.549 448.037 630.108Q413.12 678.411 426.474 711.947Q434.656 764.547 429.459 786.014V860.103L371.16 904.819L257.771 858.858Q161.325 881.206 174.637 870.705Q108.951 898.41 144.27 893.291Q119.624 871.484 84.676 772.72Q103.024 672.682 87.128 671.267Q108.243 650.089 105.978 644.999ZM70.158 300.206Q87.158 245.234 79.01 224.874Q98.718 220.29 83.607 248.308Q112.95 225.247 183.345 230.508Q232.653 212.443 255.951 256.268Q379.016 255.714 379.946 251.921Q399.679 255.392 401.136 238.239Q394.466 275.92 397.176 292.546Q435.335 287.378 436.943 282.993Q434.147 301.027 398.817 312.112Q374.067 296.257 216.285 318.599Q132.896 282.208 125.987 288.971Q101.561 327.042 79.205 286.518Q53.515 274.497 76.249 247.285ZM159.278 681.992L165.736 725.916Q180.223 765.96 183.037 769.846Q187.92 805.345 215.239 832.927Q207.58 832.337 264.239 803.897Q250.517 815.171 304.021 781.499Q324.03 815.25 323.851 791.567Q344.681 828.033 341.993 814.085Q326.281 749.783 377.462 750.783V684.167L275.913 702.311ZM171.211 362.203Q181.275 372.997 177.807 372.153Q191.661 323.022 233.988 317.731Q278.545 320.009 292.977 362.615Q339.8 339.275 317.69 365.032Q370.982 332.764 384.483 377.389Q367.76 390.153 378.248 376.064Q406.618 352.018 401.498 398.05Q362.291 361.802 346.651 376.741Q372.26 414.422 393.992 373.022Q379.488 419.729 342.917 393.561Q308.773 421.212 299.072 436.554Q205.53 429.008 188.682 397.451Q169.321 426.561 165.701 391.765Q121.98 418.525 154.361 392.76Q140.882 409.458 105.315 387.128Q142.379 340.958 154.564 344.808ZM146.204 509.348Q153.536 497.329 175.487 520.168Q157.821 471.646 158.072 461.498Q200.65 473.809 207.804 476.385Q237.709 501.075 254.64 477.589Q283.443 473.146 289.198 444.346Q293.853 444.106 336.089 466.761Q356.035 465.687 352.896 497.689Q369.865 524.341 383.036 527.944Q329.815 531.863 362.474 571.002Q356.337 557.444 272.787 565.913Q170.433 542.872 183.406 523.112Q116.345 542.394 116.742 528.689Q154.503 507.973 140.094 523.662ZM135.391 130.248Q171.485 110.03 181.945 117.378Q183.08 94.009 164.189 125.497Q226.726 94.975 230.788 107.581Q281.61 143.781 342.779 161.896Q320.067 168.49 363.747 164.366Q344.489 203.808 353.597 179.553Q320.989 228.797 328.244 206.785Q261.127 203.862 194.04 152.824Q190.748 174.345 139.322 167.555Q156.408 123.806 118.81 107.514Q117.36 105.658 154.665 137.25ZM790.66 108.524Q830.773 59.432 829.866 62.754Q799.254 82.528 819.418 87.91Q835.934 69.776 827.528 104.355Q869.268 91.813 889.465 129.254Q887.512 146.523 909.772 157.311Q882.576 130.393 861.554 167.33Q904.98 178.653 868.825 160.701Q886.299 155.595 846.821 183.097Q826.786 209.33 853.981 171.956Q818.003 177.241 827.109 157.37Q780.171 157.113 776.861 145.345Q806.64 91.904 775.693 135.17Q814.757 78.26 787.727 105.205Z" fill="black"></path></svg>