<?xml version="1.0" standalone="no"?>
<!DOCTYPE svg PUBLIC "-//W3C//DTD SVG 1.1//EN" "http://www.w3.org/Graphics/SVG/1.1/DTD/svg11.dtd" >
<svg xmlns="http://www.w3.org/2000/svg" xmlns:svg="http://www.w3.org/2000/svg" xmlns:xlink="http://www.w3.org/1999/xlink" viewBox="0 0 1024 1024"><path d="M445.0 812.0Q465.0 731.0 475.0 652.5Q485.0 574.0 488.0 441.0Q492.0 365.0 494.5 311.0Q497.0 257.0 499.0 250.0Q501.0 241.0 525.0 235.5Q549.0 230.0 616.0 227.0L692.0 223.0V198.0Q692.0 185.0 691.0 170.0Q690.0 155.0 688.0 142.0Q688.0 126.0 690.0 116.0Q692.0 106.0 695.0 101.0Q704.0 92.0 719.0 92.0Q720.0 92.0 729.0 92.5Q738.0 93.0 751.0 102.0Q755.0 106.0 759.5 125.0Q764.0 144.0 767.0 167.0L776.0 227.0H823.0Q863.0 227.0 877.0 231.5Q891.0 236.0 897.0 250.0Q900.0 258.0 900.0 264.0Q900.0 265.0 899.5 269.0Q899.0 273.0 893.0 282.0Q888.0 291.0 879.0 294.5Q870.0 298.0 852.0 298.0Q843.0 298.0 832.0 297.0Q810.0 297.0 795.0 298.5Q780.0 300.0 778.0 302.0Q777.0 304.0 777.0 310.0Q777.0 316.0 778.5 330.5Q780.0 345.0 783.0 372.0Q787.0 399.0 792.5 434.5Q798.0 470.0 801.0 497.0Q805.0 527.0 808.5 539.5Q812.0 552.0 816.0 552.0Q817.0 552.0 818.0 552.0Q819.0 551.0 822.0 547.0Q825.0 543.0 825.0 540.0Q827.0 524.0 843.0 496.0Q859.0 468.0 872.0 459.0Q881.0 454.0 890.0 454.0Q895.0 454.0 904.0 456.5Q913.0 459.0 922.0 473.0Q928.0 484.0 928.0 491.0Q928.0 492.0 927.5 496.0Q927.0 500.0 920.0 513.0Q899.0 556.0 872.5 616.5Q846.0 677.0 845.0 691.0Q845.0 695.0 851.0 712.0Q857.0 729.0 866.0 749.0Q877.0 768.0 883.5 784.5Q890.0 801.0 890.0 804.0Q890.0 807.0 891.0 807.0Q892.0 807.0 893.5 805.5Q895.0 804.0 900.0 797.0Q911.0 783.0 928.0 783.0Q945.0 783.0 954.0 797.0Q957.0 804.0 957.0 816.0Q957.0 835.0 946.0 874.5Q935.0 914.0 920.0 927.0Q913.0 931.0 906.0 931.0Q889.0 931.0 867.0 908.0Q845.0 885.0 816.0 821.0Q809.0 806.0 803.5 794.5Q798.0 783.0 794.0 781.0Q793.0 781.0 792.0 781.0Q789.0 781.0 783.5 786.5Q778.0 792.0 773.0 801.0Q765.0 812.0 756.0 821.0Q747.0 830.0 738.0 835.0Q729.0 841.0 723.0 841.0Q722.0 841.0 718.5 840.5Q715.0 840.0 704.0 831.0Q684.0 817.0 684.0 803.5Q684.0 790.0 704.0 765.0Q715.0 750.0 725.0 732.0Q735.0 714.0 742.0 702.0Q751.0 682.0 751.5 674.5Q752.0 667.0 752.0 664.0Q752.0 651.0 747.0 628.0Q744.0 610.0 736.5 558.5Q729.0 507.0 720.0 448.0Q713.0 389.0 706.0 348.5Q699.0 308.0 697.0 304.0Q695.0 300.0 677.0 299.5Q659.0 299.0 632.0 299.0Q598.0 299.0 584.5 301.5Q571.0 304.0 569.0 309.0Q567.0 324.0 566.0 363.5Q565.0 403.0 565.0 421.0Q565.0 444.0 566.0 457.0Q566.0 461.0 581.0 463.5Q596.0 466.0 623.0 468.0Q629.0 468.0 634.0 468.0Q684.0 468.0 692.5 483.0Q701.0 498.0 701.0 545.0Q701.0 567.0 699.0 597.0Q695.0 684.0 688.0 717.0Q681.0 750.0 661.0 761.0Q650.0 768.0 642.0 768.0Q634.0 768.0 621.0 765.0Q585.0 750.0 575.5 732.0Q566.0 714.0 566.0 706.0Q566.0 694.0 580.0 687.0Q587.0 684.0 596.0 684.0H612.0L630.0 687.0L632.0 623.0V545.0Q632.0 543.0 632.0 542.0Q632.0 538.0 628.0 536.5Q624.0 535.0 618.0 535.0Q611.0 535.0 602.0 536.0Q587.0 538.0 577.0 540.5Q567.0 543.0 564.0 547.0Q562.0 549.0 560.0 560.5Q558.0 572.0 558.0 587.0Q558.0 599.0 555.5 625.0Q553.0 651.0 549.0 677.0Q535.0 754.0 518.0 841.5Q501.0 929.0 497.0 941.0Q492.0 945.0 480.0 946.0Q476.0 945.0 465.0 944.0Q454.0 943.0 443.0 932.0Q431.0 921.0 431.0 895.0Q431.0 869.0 445.0 812.0ZM101.0 626.0Q103.0 615.0 109.5 611.5Q116.0 608.0 134.0 606.0Q170.0 604.0 225.0 604.0Q252.0 604.0 316.0 605.0Q380.0 606.0 402.0 614.0Q416.0 621.0 421.5 655.0Q427.0 689.0 427.0 739.0Q427.0 755.0 427.0 772.0V857.0L389.0 889.0L258.0 885.0Q191.0 882.0 158.0 879.0Q125.0 876.0 121.0 873.0Q112.0 853.0 106.0 769.5Q100.0 686.0 100.0 651.0Q100.0 635.0 101.0 626.0ZM67.0 273.0Q67.0 259.0 78.0 246.0Q83.0 237.0 104.0 234.5Q125.0 232.0 193.0 230.0Q245.0 229.0 284.0 229.0Q361.0 229.0 392.5 233.5Q424.0 238.0 424.0 259.0Q424.0 263.0 423.0 266.0Q423.0 269.0 423.0 271.0Q423.0 292.0 392.5 298.0Q362.0 304.0 240.0 304.0Q157.0 304.0 118.5 302.0Q80.0 300.0 76.0 297.0Q67.0 288.0 67.0 273.0ZM175.0 678.0 179.0 738.0Q180.0 763.0 183.0 782.0Q186.0 801.0 188.0 804.0Q197.0 809.0 246.0 809.0Q254.0 809.0 291.0 808.5Q328.0 808.0 346.0 803.0Q351.0 801.0 353.0 786.5Q355.0 772.0 355.0 740.0V684.0L265.0 682.0ZM152.0 353.0Q161.0 349.0 190.5 347.0Q220.0 345.0 260.0 344.0Q285.0 343.0 303.0 343.0Q326.0 343.0 341.5 345.0Q357.0 347.0 364.0 354.0Q373.0 362.0 375.0 366.5Q377.0 371.0 377.0 374.0Q377.0 379.0 375.0 385.0Q373.0 392.0 367.5 398.5Q362.0 405.0 357.0 408.0Q332.0 416.0 277.5 419.0Q223.0 422.0 201.0 422.0Q171.0 422.0 159.0 419.0Q130.0 408.0 129.0 396.5Q128.0 385.0 128.0 383.0Q128.0 364.0 152.0 353.0ZM141.0 511.0Q141.0 497.0 145.5 491.5Q150.0 486.0 164.0 480.0Q173.0 477.0 199.0 475.0Q225.0 473.0 254.0 473.0Q265.0 473.0 274.0 473.0Q314.0 473.0 332.5 480.5Q351.0 488.0 355.0 511.0Q357.0 518.0 357.0 524.0Q357.0 538.0 342.5 544.5Q328.0 551.0 258.0 551.0Q184.0 551.0 162.5 544.0Q141.0 537.0 141.0 515.0Q141.0 513.0 141.0 511.0ZM148.0 116.0Q153.0 102.0 166.0 97.0Q170.0 96.0 174.0 96.0Q197.0 96.0 249.0 114.5Q301.0 133.0 328.0 153.0Q339.0 166.0 339.0 178.0Q339.0 183.0 334.5 194.0Q330.0 205.0 306.0 207.0Q278.0 205.0 220.0 180.5Q162.0 156.0 148.0 142.0Q146.0 136.0 146.0 130.0Q146.0 123.0 148.0 116.0ZM800.0 88.0Q812.0 79.0 814.5 78.5Q817.0 78.0 818.0 78.0Q823.0 78.0 841.0 86.0Q859.0 95.0 874.5 116.0Q890.0 137.0 890.0 153.0Q890.0 160.0 885.5 167.0Q881.0 174.0 873.0 178.0Q864.0 185.0 855.0 185.0Q850.0 185.0 840.0 180.5Q830.0 176.0 805.0 153.0Q787.0 135.0 786.5 125.5Q786.0 116.0 786.0 115.0Q786.0 98.0 800.0 88.0Z" fill="black"></path></svg>