<?xml version="1.0" standalone="no"?>
<!DOCTYPE svg PUBLIC "-//W3C//DTD SVG 1.1//EN" "http://www.w3.org/Graphics/SVG/1.1/DTD/svg11.dtd" >
<svg xmlns="http://www.w3.org/2000/svg" xmlns:svg="http://www.w3.org/2000/svg" xmlns:xlink="http://www.w3.org/1999/xlink" viewBox="0 0 2048 2048" style=""><path d="M121.5 205.0H404.5L514.5 57.0Q514.5 57.0 549.5 85.0Q584.5 113.0 632.0 153.0Q679.5 193.0 717.5 229.0Q708.5 262.0 662.5 262.0H138.5ZM115.5 729.0H426.5L533.5 588.0Q533.5 588.0 566.5 615.0Q599.5 642.0 644.5 681.0Q689.5 720.0 725.5 754.0Q716.5 786.0 670.5 786.0H131.5ZM115.5 1003.0H426.5L533.5 862.0Q533.5 862.0 566.5 889.5Q599.5 917.0 644.5 955.5Q689.5 994.0 725.5 1028.0Q716.5 1061.0 670.5 1061.0H131.5ZM1710.5 696.0 2020.5 811.0Q2013.5 829.0 1993.5 841.0Q1973.5 853.0 1938.5 850.0Q1899.5 1005.0 1844.0 1148.0Q1788.5 1291.0 1712.5 1415.0Q1749.5 1528.0 1809.5 1603.0Q1826.5 1623.0 1836.5 1622.5Q1846.5 1622.0 1858.5 1597.0Q1872.5 1569.0 1891.5 1521.5Q1910.5 1474.0 1930.0 1421.0Q1949.5 1368.0 1964.5 1323.0L1985.5 1325.0L1950.5 1704.0Q1999.5 1798.0 2005.5 1842.5Q2011.5 1887.0 1981.5 1919.0Q1934.5 1973.0 1874.5 1967.5Q1814.5 1962.0 1758.0 1924.0Q1701.5 1886.0 1663.5 1843.0Q1592.5 1763.0 1538.5 1646.0Q1457.5 1736.0 1359.0 1810.5Q1260.5 1885.0 1143.5 1941.0L1121.5 1921.0Q1230.5 1838.0 1319.5 1727.5Q1408.5 1617.0 1477.5 1485.0Q1443.5 1371.0 1421.5 1240.0Q1399.5 1109.0 1387.5 967.0L1356.5 973.0Q1355.5 1216.0 1348.0 1359.5Q1340.5 1503.0 1320.0 1577.0Q1299.5 1651.0 1258.5 1685.0Q1222.5 1716.0 1174.5 1739.5Q1126.5 1763.0 1061.5 1763.0Q1061.5 1708.0 1057.5 1657.0Q1053.5 1606.0 1035.5 1583.0Q1015.5 1557.0 985.5 1542.0Q944.5 1666.0 865.5 1781.5Q786.5 1897.0 650.5 1993.0L629.5 1978.0Q710.5 1838.0 746.0 1676.5Q781.5 1515.0 790.5 1345.5Q799.5 1176.0 799.5 1014.0V504.0Q785.5 512.0 762.5 512.0H43.5L27.5 455.0H463.5L590.5 285.0Q590.5 285.0 625.0 312.5Q659.5 340.0 708.0 381.0Q756.5 422.0 799.5 461.0V414.0L1086.5 514.0H1358.5L1346.5 55.0L1690.5 92.0Q1687.5 112.0 1671.5 128.5Q1655.5 145.0 1616.5 151.0L1618.5 514.0H1630.5L1729.5 393.0Q1726.5 326.0 1700.5 259.0Q1674.5 192.0 1643.5 149.0L1659.5 139.0Q1806.5 151.0 1875.5 193.5Q1944.5 236.0 1955.0 287.0Q1965.5 338.0 1935.5 378.5Q1905.5 419.0 1854.5 428.0Q1888.5 454.0 1924.5 483.0Q1960.5 512.0 1991.5 539.0Q1982.5 571.0 1934.5 571.0H1618.5Q1621.5 700.0 1627.0 820.5Q1632.5 941.0 1643.5 1051.0Q1686.5 883.0 1710.5 696.0ZM1049.5 571.0V883.0H1125.5L1233.5 774.0L1381.5 893.0Q1368.5 741.0 1362.5 571.0ZM1049.5 940.0V1014.0Q1049.5 1124.0 1042.0 1247.0Q1034.5 1370.0 1000.5 1491.0L1065.5 1493.0Q1101.5 1493.0 1112.5 1479.0Q1127.5 1463.0 1134.0 1406.0Q1140.5 1349.0 1142.5 1236.0Q1144.5 1123.0 1145.5 940.0ZM461.5 1335.0H350.5V1702.0H461.5ZM105.5 1278.0V1178.0L357.5 1278.0H443.5L551.5 1165.0L772.5 1329.0Q765.5 1340.0 749.5 1349.5Q733.5 1359.0 709.5 1364.0V1786.0Q708.5 1794.0 675.0 1810.5Q641.5 1827.0 594.0 1841.0Q546.5 1855.0 504.5 1855.0H461.5V1759.0H350.5V1890.0Q350.5 1901.0 320.0 1920.0Q289.5 1939.0 241.0 1953.5Q192.5 1968.0 140.5 1968.0H105.5Z" fill="black"></path></svg>